<?xml version="1.0" encoding="UTF-8" standalone="no"?>
<!DOCTYPE svg PUBLIC "-//W3C//DTD SVG 20010904//EN"
              "http://www.w3.org/TR/2001/REC-SVG-20010904/DTD/svg10.dtd">

<svg xmlns="http://www.w3.org/2000/svg"
     width="1.77778in" height="1.77778in"
     viewBox="0 0 128 128">
  <path id="Selection"
        fill="yellow" stroke="black" stroke-width="1"
        d="M 13.00,0.60
           C 13.00,0.60 24.00,10.00 24.00,10.00
             24.00,10.00 46.00,32.00 46.00,32.00
             46.00,32.00 58.00,43.99 58.00,43.99
             58.00,43.99 63.91,47.96 63.91,47.96
             63.91,47.96 69.15,44.28 69.15,44.28
             69.15,44.28 81.00,32.00 81.00,32.00
             81.00,32.00 103.00,10.00 103.00,10.00
             103.00,10.00 114.00,0.60 114.00,0.60
             114.00,0.60 128.00,0.00 128.00,0.00
             128.00,0.00 127.40,12.00 127.40,12.00
             127.40,12.00 116.28,25.17 116.28,25.17
             116.28,25.17 95.00,47.00 95.00,47.00
             95.00,47.00 84.01,58.00 84.01,58.00
             84.01,58.00 80.04,64.00 80.04,64.00
             80.04,64.00 84.01,70.00 84.01,70.00
             84.01,70.00 96.00,82.00 96.00,82.00
             96.00,82.00 118.00,104.00 118.00,104.00
             118.00,104.00 127.40,115.00 127.40,115.00
             127.40,115.00 128.00,128.00 128.00,128.00
             128.00,128.00 115.00,127.40 115.00,127.40
             115.00,127.40 104.00,118.00 104.00,118.00
             104.00,118.00 82.00,96.00 82.00,96.00
             82.00,96.00 70.00,84.01 70.00,84.01
             70.00,84.01 64.00,80.04 64.00,80.04
             64.00,80.04 58.17,84.01 58.17,84.01
             58.17,84.01 45.91,97.00 45.91,97.00
             45.91,97.00 25.00,118.00 25.00,118.00
             25.00,118.00 14.00,127.40 14.00,127.40
             14.00,127.40 0.00,128.00 0.00,128.00
             0.00,128.00 0.74,115.01 0.74,115.01
             0.74,115.01 8.42,105.96 8.42,105.96
             8.42,105.96 32.00,82.00 32.00,82.00
             32.00,82.00 43.99,70.00 43.99,70.00
             43.99,70.00 47.96,64.00 47.96,64.00
             47.96,64.00 43.99,58.00 43.99,58.00
             43.99,58.00 32.00,46.00 32.00,46.00
             32.00,46.00 10.00,24.00 10.00,24.00
             10.00,24.00 0.60,13.00 0.60,13.00
             0.60,13.00 0.00,0.00 0.00,0.00
             0.00,0.00 13.00,0.60 13.00,0.60 Z" />
</svg>
